<svg width="170" height="53" viewBox="0 0 170 53" fill="none" xmlns="http://www.w3.org/2000/svg">
<path d="M35.9063 52.2705C34.3094 52.2705 32.7778 51.6361 31.6486 50.5069C30.5194 49.3778 29.8852 47.8463 29.8852 46.2493V16.0766C29.8852 15.1894 29.5327 14.3385 28.9054 13.7112C28.278 13.0839 27.4272 12.7315 26.5401 12.7315C25.6529 12.7315 24.802 13.0839 24.1746 13.7112C23.5473 14.3385 23.195 15.1894 23.195 16.0766V31.3369C23.195 32.9509 22.5538 34.4989 21.4124 35.6402C20.2711 36.7815 18.7232 37.4227 17.1091 37.4227H1.44737C1.06352 37.4227 0.695334 37.2702 0.42391 36.9988C0.152486 36.7274 1.7176e-06 36.3593 1.7176e-06 35.9754C-0.000291428 35.7852 0.036942 35.5967 0.109545 35.4208C0.182148 35.245 0.288723 35.0852 0.423148 34.9506C0.557572 34.8159 0.717266 34.7091 0.893008 34.6362C1.06875 34.5634 1.25711 34.5259 1.44737 34.5259H16.6318C17.1109 34.5262 17.5852 34.4321 18.0278 34.249C18.4704 34.0659 18.8727 33.7973 19.2116 33.4587C19.5504 33.1201 19.819 32.7181 20.0024 32.2756C20.1858 31.833 20.2802 31.3587 20.2802 30.8797V16.0877C20.2802 14.4317 20.9381 12.8434 22.1091 11.6724C23.2801 10.5014 24.8683 9.84354 26.5244 9.84354C28.1804 9.84354 29.7687 10.5014 30.9398 11.6724C32.1108 12.8434 32.7686 14.4317 32.7686 16.0877V46.2605C32.7686 47.0885 33.0975 47.8826 33.683 48.4681C34.2685 49.0536 35.0626 49.3825 35.8907 49.3825C36.7187 49.3825 37.5128 49.0536 38.0983 48.4681C38.6838 47.8826 39.0127 47.0885 39.0127 46.2605V6.18397C39.0127 4.54426 39.664 2.97169 40.8233 1.81204C41.9825 0.652381 43.5548 0.000591311 45.1945 0H45.3261C46.966 0.000591065 48.5385 0.652309 49.6981 1.8119C50.8577 2.97149 51.5094 4.54406 51.51 6.18397V36.5374C51.51 37.5174 51.8994 38.4573 52.5924 39.1503C53.2854 39.8433 54.2253 40.2326 55.2053 40.2326C56.1854 40.2326 57.1251 39.8433 57.8181 39.1503C58.5111 38.4573 58.9005 37.5174 58.9005 36.5374V19.0492C58.9005 17.2104 59.6309 15.4469 60.9312 14.1466C62.2314 12.8464 63.9949 12.116 65.8337 12.116C67.6726 12.116 69.436 12.8464 70.7363 14.1466C72.0365 15.4469 72.7671 17.2104 72.7671 19.0492V32.1062C72.7671 32.9278 73.0933 33.7157 73.6742 34.2966C74.2551 34.8775 75.043 35.2038 75.8646 35.2038H91.5888C91.9727 35.2038 92.3407 35.3563 92.6122 35.6277C92.8836 35.8992 93.0362 36.2673 93.0362 36.6511C93.0362 37.035 92.8836 37.4031 92.6122 37.6745C92.3407 37.946 91.9727 38.0984 91.5888 38.0984H75.7888C75.0118 38.0984 74.2424 37.9454 73.5246 37.6481C72.8068 37.3508 72.1546 36.915 71.6052 36.3656C71.0558 35.8162 70.62 35.164 70.3227 34.4462C70.0254 33.7284 69.8725 32.959 69.8725 32.1821V19.0492C69.8725 17.9781 69.4469 16.9508 68.6895 16.1935C67.9321 15.4361 66.9049 15.0106 65.8337 15.0106C64.7626 15.0106 63.7354 15.4361 62.978 16.1935C62.2206 16.9508 61.7951 17.9781 61.7951 19.0492V36.5374C61.7951 37.4028 61.6246 38.2597 61.2935 39.0592C60.9623 39.8587 60.477 40.5852 59.865 41.1971C59.2531 41.8091 58.5266 42.2944 57.7271 42.6256C56.9276 42.9568 56.0707 43.1273 55.2053 43.1273C54.3397 43.1276 53.4826 42.9573 52.6828 42.6263C51.883 42.2952 51.1562 41.8098 50.5441 41.1979C49.9319 40.5859 49.4463 39.8594 49.115 39.0597C48.7837 38.2601 48.6132 37.403 48.6132 36.5374V6.24865C48.6132 5.36147 48.2608 4.51064 47.6334 3.88331C47.0061 3.25599 46.1553 2.90355 45.2681 2.90355C44.381 2.90355 43.5301 3.25599 42.9027 3.88331C42.2754 4.51064 41.923 5.36147 41.923 6.24865V46.2515C41.9225 47.8473 41.2884 49.3775 40.1602 50.5061C39.0321 51.6347 37.5021 52.2693 35.9063 52.2705Z" fill="url(#paint0_linear_70_37)"/>
<path d="M85.2466 0.0847473C81.4555 0.0847473 79.2878 2.30146 79.2878 6.1617V11.409C79.2878 12.4326 79.832 13.0169 80.7842 13.0169C81.7364 13.0169 82.2829 12.4326 82.2829 11.409V9.36181H88.1345V11.3689C88.1345 12.4192 88.692 13.0192 89.6666 13.0192C90.6411 13.0192 91.2054 12.4192 91.2054 11.3689V6.16393C91.2054 2.30146 89.031 0.0847473 85.2466 0.0847473ZM88.1345 6.83295H82.2829V6.00779C82.2829 4.00073 83.3489 2.84557 85.2043 2.84557C87.0597 2.84557 88.1345 3.99627 88.1345 6.00779V6.83295Z" fill="black"/>
<path d="M102.748 10.1513H96.6688V1.84203C96.6688 0.818432 96.0911 0.211868 95.13 0.211868C94.1688 0.211868 93.5979 0.818432 93.5979 1.84203V11.2596C93.5979 12.3033 94.1978 12.9121 95.2504 12.9121H102.748C103.673 12.9121 104.224 12.3969 104.224 11.5272C104.224 10.6575 103.673 10.1513 102.748 10.1513Z" fill="black"/>
<path d="M116.465 11.0433L116.599 10.8805C117.544 9.74539 118.04 8.26241 118.04 6.60324C118.04 2.6984 115.363 0.0802765 111.383 0.0802765C107.402 0.0802765 104.719 2.70286 104.719 6.60771C104.719 10.5126 107.395 13.1373 111.385 13.1373C112.191 13.1368 112.993 13.0158 113.764 12.7783L113.954 12.7203L114.788 13.9134C114.919 14.1315 115.105 14.3108 115.328 14.4328C115.551 14.5547 115.803 14.6148 116.057 14.6069C116.989 14.6069 117.598 14.0137 117.598 13.0882C117.581 12.6877 117.435 12.3035 117.181 11.9933L116.465 11.0433ZM114.708 7.95239L114.65 8.14197H114.277L113.515 7.11835C113.382 6.93799 113.207 6.79288 113.005 6.69569C112.804 6.59851 112.581 6.55221 112.357 6.56083C112.178 6.55459 112 6.58391 111.833 6.64707C111.665 6.71024 111.512 6.80602 111.382 6.92882C111.252 7.05163 111.148 7.19902 111.075 7.36248C111.002 7.52594 110.963 7.70223 110.959 7.88107C110.948 8.21017 111.041 8.53436 111.226 8.80652L112.032 9.97061V10.2806L111.809 10.3519C111.668 10.3686 111.526 10.3753 111.385 10.372C109.309 10.372 107.868 8.82662 107.868 6.60324C107.868 4.37987 109.309 2.8411 111.385 2.8411C113.461 2.8411 114.893 4.38656 114.893 6.60324C114.9 7.0612 114.837 7.51753 114.708 7.95685V7.95239Z" fill="black"/>
<path d="M125.981 0.0847473C122.19 0.0847473 120.024 2.30146 120.024 6.1617V11.409C120.024 12.4326 120.566 13.0169 121.521 13.0169C122.475 13.0169 123.017 12.4326 123.017 11.409V9.36181H128.869V11.3689C128.869 12.4192 129.426 13.0192 130.407 13.0192C131.389 13.0192 131.939 12.4192 131.939 11.3689V6.16393C131.939 2.30146 129.765 0.0847473 125.981 0.0847473ZM128.88 6.83295H123.028V6.00779C123.028 4.00073 124.094 2.84557 125.958 2.84557C127.823 2.84557 128.88 3.99627 128.88 6.00779V6.83295Z" fill="black"/>
<path d="M84.9297 23.8126C84.1113 23.797 83.4334 23.748 82.9517 23.5785C82.47 23.409 82.2046 23.1325 82.2046 22.6864C82.2046 21.8256 83.0587 21.2882 84.4347 21.2882C85.4147 21.2692 86.3781 21.5425 87.2022 22.0732C87.5097 22.308 87.8816 22.4434 88.2681 22.4612C89.0598 22.4612 89.595 21.9104 89.595 21.0853C89.6036 20.8246 89.543 20.5662 89.4192 20.3367C89.2954 20.1071 89.1128 19.9144 88.8902 19.7784C87.7596 19.0447 86.3972 18.6835 84.7313 18.6835C81.2301 18.6835 79.1405 20.2579 79.1405 22.905C79.1405 25.4473 80.6436 26.4999 84.3232 26.5355C86.0381 26.5489 87.1108 26.7585 87.1108 27.6996C87.1108 29.1402 85.3267 29.1402 84.7313 29.1402C83.333 29.1402 82.2782 28.7946 81.3705 28.0587C81.0633 27.7979 80.6742 27.6534 80.2712 27.6506C79.4795 27.6506 78.9331 28.2014 78.9331 29.0265C78.9265 29.2313 78.964 29.4352 79.0433 29.6241C79.1226 29.8131 79.2417 29.9828 79.3925 30.1215C80.5432 31.1942 82.2671 31.7383 84.5217 31.7383C87.084 31.7383 90.1481 31.0113 90.1481 27.5234C90.1682 24.9566 88.6004 23.8483 84.9297 23.8126Z" fill="black"/>
<path d="M93.7608 18.7995C92.7862 18.7995 92.2219 19.3993 92.2219 20.4519V29.9609C92.2219 31.0135 92.7862 31.6201 93.7608 31.6201C94.7353 31.6201 95.2994 31.0135 95.2994 29.9609V20.4519C95.2994 19.3993 94.7353 18.7995 93.7608 18.7995Z" fill="black"/>
<path d="M108.615 24.3345H105.493C104.577 24.3345 104.055 24.8296 104.055 25.6725C104.055 26.5155 104.577 27.0106 105.493 27.0106H107.11L107.09 27.4209C106.666 28.4155 105.636 28.9819 104.18 28.9819C102.077 28.9819 100.612 27.4209 100.612 25.2131C100.612 23.0054 102.059 21.4421 104.126 21.4421C104.627 21.4252 105.126 21.522 105.584 21.7251C106.043 21.9283 106.449 22.2325 106.773 22.6151C106.917 22.7821 107.096 22.9145 107.298 23.0026C107.5 23.0906 107.719 23.1319 107.94 23.1235C108.136 23.1331 108.333 23.1014 108.516 23.0307C108.7 22.9599 108.867 22.8516 109.006 22.7126C109.145 22.5736 109.254 22.4071 109.326 22.2237C109.397 22.0402 109.429 21.8439 109.42 21.6473C109.426 21.2591 109.294 20.8814 109.048 20.5813C107.982 19.3815 106.173 18.6813 104.106 18.6813C100.13 18.6813 97.4626 21.3083 97.4626 25.2131C97.4626 29.118 100.139 31.7361 104.106 31.7361C107.797 31.7361 110.283 29.5462 110.283 26.2858V25.9847C110.274 24.9411 109.666 24.3345 108.615 24.3345Z" fill="black"/>
<path d="M122.747 18.7995C121.801 18.7995 121.251 19.386 121.251 20.4096V26.4887H120.856L120.736 26.3817L115.979 19.7673C115.779 19.4593 115.503 19.2082 115.177 19.0386C114.852 18.869 114.488 18.7866 114.121 18.7995C113.033 18.7995 112.337 19.5554 112.337 20.7262V29.9988C112.337 31.0224 112.881 31.6156 113.834 31.6156C114.786 31.6156 115.33 31.0224 115.33 29.9988V23.9197H115.733L115.852 24.0334L120.548 30.6478C120.757 30.9618 121.043 31.2163 121.38 31.386C121.717 31.5557 122.092 31.6348 122.468 31.6156C123.554 31.6156 124.252 30.853 124.252 29.6889V20.4096C124.246 19.386 123.701 18.7995 122.747 18.7995Z" fill="black"/>
<path d="M132.595 18.679C128.804 18.679 126.636 20.8957 126.636 24.7582V29.9988C126.636 31.0224 127.181 31.6156 128.133 31.6156C129.085 31.6156 129.629 31.0224 129.629 29.9988V27.9517H135.494V29.9587C135.494 31.0113 136.061 31.6179 137.035 31.6179C138.01 31.6179 138.567 31.0113 138.567 29.9587V24.7582C138.556 20.8957 136.386 18.679 132.595 18.679ZM135.481 25.4361H129.629V24.6021C129.629 22.595 130.695 21.4399 132.559 21.4399C134.424 21.4399 135.481 22.5906 135.481 24.6021V25.4361Z" fill="black"/>
<path d="M150.097 28.7389H144.02V20.4297C144.02 19.4061 143.447 18.7995 142.488 18.7995C141.529 18.7995 140.949 19.4061 140.949 20.4297V29.8472C140.949 30.8998 141.549 31.4997 142.599 31.4997H150.097C151.022 31.4997 151.573 30.9845 151.573 30.1237C151.573 29.2629 151.022 28.7389 150.097 28.7389Z" fill="black"/>
<path d="M158.611 23.8126C157.793 23.797 157.108 23.748 156.635 23.5785C156.162 23.409 155.886 23.1325 155.886 22.6864C155.886 21.8256 156.74 21.2882 158.116 21.2882C159.096 21.2695 160.059 21.5427 160.883 22.0732C161.193 22.3095 161.567 22.4449 161.956 22.4612C162.739 22.4612 163.276 21.9104 163.276 21.0853C163.285 20.8244 163.224 20.566 163.099 20.3364C162.975 20.1069 162.792 19.9143 162.57 19.7784C161.441 19.0447 160.078 18.6835 158.413 18.6835C154.911 18.6835 152.822 20.2579 152.822 22.905C152.822 25.4473 154.325 26.4999 158.002 26.5355C159.726 26.5489 160.792 26.7585 160.792 27.6996C160.792 29.1402 159.008 29.1402 158.413 29.1402C157.021 29.1402 155.96 28.7946 155.052 28.0587C154.744 27.7975 154.354 27.653 153.95 27.6506C153.161 27.6506 152.63 28.2014 152.63 29.0265C152.623 29.2302 152.659 29.4331 152.736 29.6218C152.813 29.8105 152.929 29.9808 153.076 30.1215C154.227 31.1942 155.955 31.7383 158.205 31.7383C160.776 31.7383 163.832 31.0113 163.832 27.5234C163.85 24.9566 162.282 23.8483 158.611 23.8126Z" fill="black"/>
<path d="M167.625 17.7335C167.826 17.7199 168.024 17.7793 168.185 17.9007C168.252 17.9606 168.305 18.0352 168.339 18.1187C168.373 18.2022 168.387 18.2924 168.381 18.3824C168.384 18.5079 168.346 18.631 168.272 18.7325C168.196 18.8351 168.091 18.9128 167.971 18.9555L168.475 19.8699V19.8877H168.171L167.703 19.0158H167.197V19.8877H166.911V17.7335H167.625ZM167.197 18.7838H167.643C167.765 18.7906 167.885 18.7516 167.98 18.6746C168.021 18.6382 168.053 18.5931 168.075 18.5426C168.097 18.4921 168.107 18.4373 168.105 18.3824C168.108 18.3256 168.099 18.2688 168.079 18.2157C168.059 18.1626 168.027 18.1145 167.986 18.0747C167.887 17.9991 167.765 17.9612 167.641 17.9676H167.195L167.197 18.7838Z" fill="#034E4F"/>
<path d="M167.694 21.1054C167.238 21.1054 166.792 20.9701 166.413 20.7167C166.034 20.4634 165.738 20.1032 165.564 19.6819C165.389 19.2605 165.344 18.7969 165.433 18.3496C165.521 17.9023 165.741 17.4914 166.063 17.1689C166.386 16.8464 166.797 16.6268 167.244 16.5379C167.692 16.4489 168.155 16.4945 168.576 16.6691C168.998 16.8436 169.358 17.1392 169.611 17.5184C169.865 17.8976 170 18.3434 170 18.7994C169.999 19.4108 169.756 19.997 169.324 20.4293C168.892 20.8616 168.305 21.1048 167.694 21.1054ZM167.694 16.7121C167.281 16.7121 166.878 16.8345 166.534 17.0639C166.191 17.2933 165.923 17.6192 165.766 18.0006C165.608 18.382 165.566 18.8017 165.647 19.2066C165.727 19.6115 165.926 19.9835 166.218 20.2754C166.51 20.5673 166.882 20.7661 167.287 20.8467C167.692 20.9272 168.111 20.8859 168.493 20.7279C168.874 20.5699 169.2 20.3024 169.43 19.9591C169.659 19.6159 169.781 19.2123 169.781 18.7994C169.781 18.246 169.561 17.7154 169.169 17.3241C168.778 16.9328 168.247 16.7127 167.694 16.7121Z" fill="#034E4F"/>
<defs>
<linearGradient id="paint0_linear_70_37" x1="-0.0133787" y1="26.1364" x2="93.054" y2="26.1364" gradientUnits="userSpaceOnUse">
<stop stop-color="#008CAE"/>
<stop offset="0.16" stop-color="#0F163D"/>
<stop offset="0.35" stop-color="#091C26"/>
<stop offset="0.55" stop-color="#005756"/>
<stop offset="0.75" stop-color="#009885"/>
</linearGradient>
</defs>
</svg>
